<svg id="Слой_1" data-name="Слой 1" xmlns="http://www.w3.org/2000/svg" viewBox="0 0 150 150" width="60px" height="60px" fill="#000000" class="svg-path"><title>150_150_iconki_geogia</title><path d="M41.56,108.12C25.66,92.28,28.11,64,47,45s47.2-21.51,63.1-5.68,13.45,44.15-5.44,63.12S57.46,124,41.56,108.12Zm65.71-65.95C92.94,27.89,67.18,30.44,49.85,47.83S30.07,91,44.39,105.27,84.48,117,101.81,99.61,121.59,56.44,107.27,42.17Z"/><path d="M96.28,95.59a2,2,0,0,1,0-2.84C109.5,79.47,111.4,59.82,100.49,49a2,2,0,0,1,2.83-2.85c12.48,12.43,10.59,34.62-4.2,49.47A2,2,0,0,1,96.28,95.59Z"/><path d="M14,135.78c-4.29-4.28-5-9.77-1.85-15.07a40.07,40.07,0,0,1,2.39-3.47c3.15-4.25,6.71-9.06,5.9-18.58,0-.31-.31-1.93-.42-2.34a57.15,57.15,0,0,1,1-30.75,70.26,70.26,0,0,1,17.55-29C54.89,20.22,77.4,12.94,97.3,17.6c.77.18,2.39.53,2.72.59,9.89.95,14.78-2.7,19.1-5.92a40.43,40.43,0,0,1,3.47-2.41c5.28-3.13,10.78-2.48,15.07,1.8s5,9.77,1.85,15.07a40.07,40.07,0,0,1-2.39,3.47c-3.27,4.42-7,9.42-5.79,19.67,0,.2.11.49.15.64a56.72,56.72,0,0,1-.75,31,69.91,69.91,0,0,1-17.64,29.3,70.21,70.21,0,0,1-29,17.67,57,57,0,0,1-30.8,1.08c-.36-.09-1.75-.34-2-.37-9.65-.84-14.48,2.77-18.75,5.95a41,41,0,0,1-3.46,2.41C23.79,140.71,18.29,140.06,14,135.78ZM134.83,14.5c-2.08-2.07-5.53-3.95-10.2-1.19-1,.58-2,1.36-3.11,2.18-4.42,3.29-10.47,7.81-21.94,6.69-.47-.05-3.17-.66-3.19-.67-18.56-4.35-39.63,2.52-55,17.92C25.77,55.14,19.06,76.55,23.91,95.32c.14.56.49,2.45.53,3,.94,11-3.46,17-6.67,21.31-.81,1.1-1.58,2.14-2.16,3.12-2.75,4.67-.85,8.12,1.23,10.19s5.52,3.95,10.19,1.18A35.76,35.76,0,0,0,30.14,132c4.36-3.25,10.32-7.7,21.5-6.73.5,0,2.17.35,2.69.48,18.81,4.83,40.23-2,55.92-17.69s22.42-37.83,17.35-56.45c-.09-.35-.21-.89-.22-1l0-.17c-1.4-11.89,3.19-18.09,6.54-22.62a34.92,34.92,0,0,0,2.16-3.12C138.8,20,136.9,16.57,134.83,14.5Z"/><path d="M62.72,86.88a18.57,18.57,0,1,1,26.26,0A18.59,18.59,0,0,1,62.72,86.88ZM86.1,63.41a14.55,14.55,0,1,0,0,20.58A14.57,14.57,0,0,0,86.1,63.41Z"/></svg>